<svg xmlns="http://www.w3.org/2000/svg" width="600" height="200" viewBox="0 0 600 200" role="img" aria-label="zubrafex/braggraphs · stars"><rect x="0.5" y="0.5" width="599" height="199" rx="6" fill="#ffffff" stroke="#e6e8eb"/><g font-family="-apple-system,BlinkMacSystemFont,'Segoe UI',Roboto,Helvetica,Arial,sans-serif" style="font-variant-numeric:tabular-nums"><text x="10" y="17" font-size="11" fill="#9aa3ad">zubrafex/braggraphs · stars</text><line x1="10.0" y1="160.0" x2="590.0" y2="160.0" stroke="#f0f2f4" stroke-width="1"/><line x1="10.0" y1="101.4" x2="590.0" y2="101.4" stroke="#f0f2f4" stroke-width="1"/><line x1="10.0" y1="42.7" x2="590.0" y2="42.7" stroke="#f0f2f4" stroke-width="1"/><line x1="10.0" y1="178.0" x2="590.0" y2="178.0" stroke="#e2e5e8" stroke-width="1"/><path d="M10.0 160.0L155.0 142.4L300.0 113.1L445.0 66.2L590.0 39.8" fill="none" stroke="#5b6ee8" stroke-width="1.75" stroke-linejoin="round" stroke-linecap="round"/><rect x="571.0" y="149.0" width="19" height="10" fill="#ffffff" opacity="0.85"/><text x="590.0" y="157.0" font-size="8" fill="#9aa3ad" text-anchor="end">100</text><rect x="571.0" y="90.4" width="19" height="10" fill="#ffffff" opacity="0.85"/><text x="590.0" y="98.4" font-size="8" fill="#9aa3ad" text-anchor="end">200</text><rect x="571.0" y="31.7" width="19" height="10" fill="#ffffff" opacity="0.85"/><text x="590.0" y="39.7" font-size="8" fill="#9aa3ad" text-anchor="end">300</text><circle cx="590.0" cy="39.8" r="5" fill="#5b6ee8" opacity="0.15"/><circle cx="590.0" cy="39.8" r="2.5" fill="#5b6ee8"/><text x="590" y="17" font-size="12" font-weight="600" fill="#1a1f27" text-anchor="end">305<tspan font-size="9" font-weight="400" fill="#9aa3ad"> total</tspan></text><text x="10" y="192" font-size="8" fill="#9aa3ad">2026-06-01</text><text x="590" y="192" font-size="8" fill="#9aa3ad" text-anchor="end">updated 2026-07-01</text></g></svg>